<svg width="22" height="22" viewBox="0 0 22 22" fill="none" xmlns="http://www.w3.org/2000/svg">
<path fill-rule="evenodd" clip-rule="evenodd" d="M11.3371 2.09081C12.4426 0.826483 13.9337 0.0812065 15.5093 0.00625863L15.7727 0C17.4447 0 19.0413 0.756243 20.2079 2.09048C21.3583 3.40484 22 5.17533 22 7.01636C22 8.85738 21.3583 10.6279 20.2081 11.9421L11.6843 21.686C11.3181 22.1047 10.6814 22.1047 10.3152 21.686L1.7914 11.9421C-0.597133 9.21163 -0.597133 4.82108 1.7914 2.09064C4.22918 -0.696094 8.22444 -0.696094 10.6622 2.09064L10.9997 2.47612L11.3371 2.09081ZM18.8388 3.36637C18.0165 2.42586 16.9145 1.90389 15.7727 1.90389C14.6309 1.90389 13.5289 2.42586 12.7064 3.36654L11.6843 4.53492C11.3181 4.95359 10.6814 4.95359 10.3152 4.53492L9.2931 3.36654C7.5878 1.41713 4.86582 1.41713 3.16052 3.36654C1.40598 5.37223 1.40598 8.66048 3.16052 10.6662L10.9997 19.6273L18.8391 10.666C19.679 9.70637 20.1554 8.39201 20.1554 7.01636C20.1554 5.6407 19.679 4.32634 18.8388 3.36637Z" fill="#CDD3CE"/>
</svg>
