<svg width="25" height="24" viewBox="0 0 25 24" fill="none" xmlns="http://www.w3.org/2000/svg">
<path d="M23.8552 11.3504L21.7575 9.3463L13.3995 1.35243C13.1633 1.12677 12.843 1 12.509 1C12.175 1 11.8547 1.12677 11.6185 1.35243L3.24785 9.34115L1.14485 11.3504C0.946702 11.5535 0.952549 11.8701 1.15807 12.0665C1.3636 12.2628 1.69497 12.2684 1.90762 12.0791L3.08954 10.9499V21.7969C3.08954 22.4613 3.65334 23 4.34883 23H9.26184C9.95732 23 10.5211 22.4613 10.5211 21.7969V14.9219C10.5211 14.827 10.6017 14.75 10.701 14.75H14.299C14.3983 14.75 14.4789 14.827 14.4789 14.9219V21.7969C14.4789 22.4613 15.0427 23 15.7382 23H20.6566C20.9906 23 21.3109 22.8732 21.547 22.6476C21.7832 22.422 21.9159 22.116 21.9159 21.7969V10.955L23.0924 12.0791C23.305 12.2684 23.6364 12.2628 23.8419 12.0665C24.0475 11.8701 24.0533 11.5535 23.8552 11.3504Z" fill="#3ACD5B" stroke="#3ACD5B" stroke-width="0.6"/>
</svg>
