<svg width="124" height="124" viewBox="0 0 124 124" fill="none" xmlns="http://www.w3.org/2000/svg">
<path d="M0.323227 31.1616C0.323227 14.3532 13.9491 0.727264 30.7576 0.727264H92.9495C109.758 0.727264 123.384 14.3532 123.384 31.1616V93.3535C123.384 110.162 109.758 123.788 92.9495 123.788H30.7576C13.9491 123.788 0.323227 110.162 0.323227 93.3535V31.1616Z" fill="#4CB32B"/>
<path fill-rule="evenodd" clip-rule="evenodd" d="M27.3172 63.5607C26.0469 62.8282 24.8655 61.9262 23.8111 60.8677C20.6354 57.6919 18.8485 53.3856 18.8485 48.8929V44.6586V44.6501C18.8485 43.9091 19.0432 43.1596 19.4539 42.4779L32.157 21.3062C32.9192 20.0316 34.2996 19.2525 35.7859 19.2525H86.598C88.0842 19.2525 89.4646 20.0316 90.231 21.3062L102.934 42.4779C103.341 43.1639 103.535 43.9133 103.535 44.6586V48.8929C103.535 53.3856 101.753 57.6919 98.577 60.8677C97.5184 61.9262 96.337 62.8282 95.0667 63.5607V93.3535C95.0667 96.1609 93.953 98.854 91.9671 100.84C89.9812 102.822 87.2882 103.939 84.4808 103.939C73.0862 103.939 49.2976 103.939 37.903 103.939C35.0957 103.939 32.4026 102.822 30.4167 100.84C28.435 98.854 27.3172 96.1609 27.3172 93.3535V63.5607ZM86.598 65.8303C82.1053 65.8303 77.799 64.0434 74.6232 60.8677C74.3692 60.6178 74.1278 60.3595 73.8949 60.0928C73.6621 60.3595 73.4207 60.6178 73.1709 60.8677C69.9909 64.0434 65.6846 65.8303 61.1919 65.8303C56.6993 65.8303 52.3929 64.0434 49.2172 60.8677C48.9631 60.6178 48.7218 60.3595 48.4889 60.0928C48.256 60.3595 48.0147 60.6178 47.7649 60.8677C44.5849 64.0434 40.2785 65.8303 35.7859 65.8303V93.3535C35.7859 93.9125 36.0103 94.4544 36.4083 94.8482C36.8021 95.2463 37.3441 95.4707 37.903 95.4707H48.4889V78.5333C48.4889 76.196 50.3859 74.299 52.7232 74.299H69.6606C71.998 74.299 73.8949 76.196 73.8949 78.5333V95.4707H84.4808C85.044 95.4707 85.5817 95.2463 85.9798 94.8482C86.3736 94.4544 86.598 93.9125 86.598 93.3535V65.8303ZM56.9576 82.7677V95.4707H65.4263V82.7677H56.9576ZM95.0667 45.8315L84.2013 27.7212H38.1825L27.3172 45.8315V48.8929C27.3172 51.1371 28.2106 53.2924 29.7985 54.8803C31.3864 56.4682 33.5417 57.3616 35.7859 57.3616C38.0343 57.3616 40.1853 56.4682 41.7732 54.8803C43.3611 53.2924 44.2545 51.1371 44.2545 48.8929V44.6586C44.2545 42.3212 46.1515 40.4242 48.4889 40.4242C50.8262 40.4242 52.7232 42.3212 52.7232 44.6586V48.8929C52.7232 51.1371 53.6167 53.2924 55.2045 54.8803C56.7924 56.4682 58.9477 57.3616 61.1919 57.3616C63.4403 57.3616 65.5914 56.4682 67.1793 54.8803C68.7672 53.2924 69.6606 51.1371 69.6606 48.8929C69.6606 48.8929 69.6606 46.7757 69.6606 44.6586C69.6606 42.3212 71.5576 40.4242 73.8949 40.4242C76.2323 40.4242 78.1293 42.3212 78.1293 44.6586V48.8929C78.1293 51.1371 79.0227 53.2924 80.6106 54.8803C82.1985 56.4682 84.3538 57.3616 86.598 57.3616C88.8464 57.3616 90.9975 56.4682 92.5853 54.8803C94.1732 53.2924 95.0667 51.1371 95.0667 48.8929V45.8315Z" fill="#F3FBF0"/>
</svg>



