<svg width="131" height="46" viewBox="0 0 131 46" fill="none" xmlns="http://www.w3.org/2000/svg">
<path d="M8.48116 44.6796H0V2.15121H8.48116V23.4154L24.2614 2.15121H33.8951L20.5085 20.0938L33.8951 44.6796H24.2614L14.9529 27.4784L8.48116 36.168V44.6796Z" fill="#0A3C48"/>
<path d="M47.5477 36.9094C47.8629 37.0082 48.1781 37.0774 48.4933 37.117C48.8086 37.1368 49.1238 37.1466 49.439 37.1466C50.227 37.1466 50.9855 37.0379 51.7144 36.8204C52.4433 36.6029 53.123 36.2965 53.7534 35.901C54.4036 35.4858 54.9749 34.9916 55.4674 34.4182C55.9796 33.825 56.3933 33.1726 56.7085 32.4608L62.6188 38.4219C61.8701 39.4896 61.0033 40.4485 60.0183 41.2986C59.0529 42.1488 57.9989 42.8705 56.8563 43.4636C55.7334 44.0568 54.5415 44.5016 53.2806 44.7982C52.0395 45.1145 50.7589 45.2727 49.439 45.2727C47.2128 45.2727 45.1147 44.8575 43.1446 44.0271C41.1942 43.1967 39.4803 42.0401 38.0027 40.5572C36.5449 39.0744 35.3924 37.3147 34.5452 35.2782C33.6981 33.222 33.2745 30.9681 33.2745 28.5164C33.2745 26.0054 33.6981 23.712 34.5452 21.636C35.3924 19.56 36.5449 17.7904 38.0027 16.3273C39.4803 14.8642 41.1942 13.7274 43.1446 12.9168C45.1147 12.1061 47.2128 11.7008 49.439 11.7008C50.7589 11.7008 52.0493 11.859 53.3102 12.1753C54.571 12.4917 55.7629 12.9464 56.8859 13.5396C58.0285 14.1327 59.0923 14.8642 60.0774 15.7342C61.0624 16.5844 61.9292 17.5433 62.6779 18.6109L47.5477 36.9094ZM51.6849 20.2124C51.3105 20.074 50.9362 19.985 50.5619 19.9455C50.2073 19.906 49.833 19.8862 49.439 19.8862C48.3357 19.8862 47.2916 20.0938 46.3066 20.509C45.3412 20.9044 44.4941 21.4778 43.7652 22.2291C43.0559 22.9804 42.4945 23.8899 42.0808 24.9576C41.667 26.0054 41.4602 27.1917 41.4602 28.5164C41.4602 28.813 41.47 29.1491 41.4897 29.5248C41.5291 29.9004 41.5784 30.286 41.6375 30.6814C41.7163 31.057 41.8049 31.4228 41.9035 31.7787C42.002 32.1346 42.13 32.4509 42.2876 32.7277L51.6849 20.2124Z" fill="#0A3C48"/>
<path d="M97.1049 44.6796H95.1545L92.0221 40.32C91.2538 41.012 90.4362 41.6644 89.5694 42.2773C88.7222 42.8705 87.8258 43.3944 86.8802 43.8492C85.9346 44.2841 84.9594 44.6301 83.9547 44.8872C82.9696 45.1442 81.9649 45.2727 80.9404 45.2727C78.7143 45.2727 76.6161 44.8575 74.6461 44.0271C72.6957 43.1769 70.9817 42.0104 69.5042 40.5276C68.0463 39.0249 66.8938 37.2554 66.0467 35.2189C65.1996 33.1627 64.776 30.9285 64.776 28.5164C64.776 26.1241 65.1996 23.8998 66.0467 21.8436C66.8938 19.7873 68.0463 18.0079 69.5042 16.5053C70.9817 15.0026 72.6957 13.8262 74.6461 12.9761C76.6161 12.1259 78.7143 11.7008 80.9404 11.7008C81.6497 11.7008 82.3786 11.7601 83.1272 11.8788C83.8955 11.9974 84.6343 12.1951 85.3436 12.4719C86.0725 12.7289 86.7522 13.0749 87.3826 13.5099C88.013 13.9449 88.5449 14.4787 88.9783 15.1114V0.282806H97.1049V44.6796ZM88.9783 28.5164C88.9783 27.4092 88.7616 26.3416 88.3282 25.3134C87.9145 24.2656 87.3432 23.3462 86.6143 22.5553C85.8853 21.7447 85.0283 21.1021 84.0433 20.6276C83.078 20.1333 82.0437 19.8862 80.9404 19.8862C79.8372 19.8862 78.7931 20.0839 77.808 20.4793C76.8427 20.8748 75.9956 21.4481 75.2666 22.1994C74.5574 22.931 73.9959 23.8306 73.5822 24.8982C73.1685 25.9659 72.9616 27.172 72.9616 28.5164C72.9616 29.6829 73.1685 30.7901 73.5822 31.838C73.9959 32.8859 74.5574 33.8053 75.2666 34.5961C75.9956 35.387 76.8427 36.0098 77.808 36.4645C78.7931 36.9193 79.8372 37.1466 80.9404 37.1466C82.0437 37.1466 83.078 36.9094 84.0433 36.4349C85.0283 35.9406 85.8853 35.298 86.6143 34.5072C87.3432 33.6965 87.9145 32.7772 88.3282 31.749C88.7616 30.7012 88.9783 29.6236 88.9783 28.5164Z" fill="#0A3C48"/>
<path d="M115.87 36.9094C116.185 37.0082 116.5 37.0774 116.815 37.117C117.131 37.1368 117.446 37.1466 117.761 37.1466C118.549 37.1466 119.308 37.0379 120.037 36.8204C120.765 36.6029 121.445 36.2965 122.076 35.901C122.726 35.4858 123.297 34.9916 123.79 34.4182C124.302 33.825 124.715 33.1726 125.031 32.4608L130.941 38.4219C130.192 39.4896 129.325 40.4485 128.34 41.2986C127.375 42.1488 126.321 42.8705 125.178 43.4636C124.055 44.0568 122.864 44.5016 121.603 44.7982C120.362 45.1145 119.081 45.2727 117.761 45.2727C115.535 45.2727 113.437 44.8575 111.467 44.0271C109.516 43.1967 107.802 42.0401 106.325 40.5572C104.867 39.0744 103.714 37.3147 102.867 35.2782C102.02 33.222 101.597 30.9681 101.597 28.5164C101.597 26.0054 102.02 23.712 102.867 21.636C103.714 19.56 104.867 17.7904 106.325 16.3273C107.802 14.8642 109.516 13.7274 111.467 12.9168C113.437 12.1061 115.535 11.7008 117.761 11.7008C119.081 11.7008 120.371 11.859 121.632 12.1753C122.893 12.4917 124.085 12.9464 125.208 13.5396C126.351 14.1327 127.414 14.8642 128.399 15.7342C129.385 16.5844 130.251 17.5433 131 18.6109L115.87 36.9094ZM120.007 20.2124C119.633 20.074 119.258 19.985 118.884 19.9455C118.529 19.906 118.155 19.8862 117.761 19.8862C116.658 19.8862 115.614 20.0938 114.629 20.509C113.663 20.9044 112.816 21.4778 112.087 22.2291C111.378 22.9804 110.817 23.8899 110.403 24.9576C109.989 26.0054 109.782 27.1917 109.782 28.5164C109.782 28.813 109.792 29.1491 109.812 29.5248C109.851 29.9004 109.901 30.286 109.96 30.6814C110.038 31.057 110.127 31.4228 110.226 31.7787C110.324 32.1346 110.452 32.4509 110.61 32.7277L120.007 20.2124Z" fill="#0A3C48"/>
</svg>
